<?xml version="1.0" encoding="UTF-8" standalone="no"?>

<svg
   version="1.1"
   xmlns="http://www.w3.org/2000/svg"
   xmlns:svg="http://www.w3.org/2000/svg">

  <symbol id="icon-major-arcana" viewBox="0 0 24 24">
    <g
      id="g1"
      transform="translate(-77.479515,-134.12738)">
      <path
        id="path17-23"
        style="display:inline;fill:none;stroke:#6874cc;stroke-width:1.14971;stroke-linecap:butt;stroke-linejoin:miter;stroke-dasharray:none;stroke-opacity:1"
        d="m 89.694799,146.18291 9.759021,5.53261 -19.90672,-11.28206 m 9.732457,5.94119 -9.670891,5.68527 19.723917,-11.5987 m -9.849796,5.69065 0.08814,11.21787 -0.182803,-22.88077 m -0.425645,11.63741 h 0.517043 0.517043 m -0.517043,-0.51704 v 0.51704 0.51705 m 11.425138,-0.51604 a 11.425146,11.425152 0 0 1 -11.425143,11.42515 11.425146,11.425152 0 0 1 -11.425146,-11.42515 11.425146,11.425152 0 0 1 11.425146,-11.42515 11.425146,11.425152 0 0 1 11.425143,11.42515 z" />
    </g>
  </symbol>

  <symbol id="icon-wands" viewBox="0 0 24 24">
    <g
      id="g1"
      transform="translate(-56.713879,-161.49358)">
      <path
        style="fill:none;stroke:#6874cc;stroke-width:1.27993;stroke-linecap:butt;stroke-linejoin:miter;stroke-dasharray:none;stroke-opacity:1"
        d="M 79.526243,185.02032 H 68.634694 57.743146 l 5.445773,-11.04006 5.445775,-11.04005 5.445775,11.04005 z"
        id="path4" />
    </g>
  </symbol>

  <symbol id="icon-cups" viewBox="0 0 24 24">
    <g
      id="g1"
      transform="translate(-104.40137,-159.84778)">
      <path
        style="fill:none;stroke:#6874cc;stroke-width:1.27993;stroke-linecap:butt;stroke-linejoin:miter;stroke-dasharray:none;stroke-opacity:1"
        d="m 105.43064,160.48774 h 10.89156 10.89154 l -5.44577,11.04006 -5.44577,11.04005 -5.44579,-11.04005 z"
        id="path6" />
    </g>
  </symbol>

   <symbol id="icon-swords" viewBox="0 0 24 24">
    <g
      id="g1"
      transform="translate(-66.079185,-188.68916)">
      <g
        id="g3"
        style="display:none"
        transform="matrix(0.19374062,0,0,0.22533094,59.01177,165.05402)">
        <path
          id="path2"
          style="display:inline;fill:none;stroke:#000000;stroke-width:6.67087;stroke-linecap:butt;stroke-linejoin:miter;stroke-dasharray:none;stroke-opacity:1"
          d="m 40.571021,209.85011 56.659529,-96.1813 55.61028,96.53105 z m 3.497501,-63.30479 H 149.69308" />
      </g>
      <path
        id="path3"
        style="fill:none;stroke:#6874cc;stroke-width:1.27993;stroke-linecap:butt;stroke-linejoin:miter;stroke-dasharray:none;stroke-opacity:1"
        d="m 69.348796,197.04819 h 17.967885 m 1.574867,15.16772 H 77.999999 67.108451 l 5.445773,-11.04006 5.445775,-11.04005 5.445775,11.04005 z" />
    </g>
  </symbol>

  <symbol id="icon-pentacles" viewBox="0 0 24 24">
    <g
      id="g1"
      transform="translate(-103.15137,-195.09778)">
      <path
        id="path3-8"
        style="fill:none;stroke:#6874cc;stroke-width:1.27993;stroke-linecap:butt;stroke-linejoin:miter;stroke-dasharray:none;stroke-opacity:1"
        d="m 123.7234,210.90546 h -17.9679 m -1.57486,-15.16772 h 10.89156 10.89154 l -5.44577,11.04006 -5.44577,11.04005 -5.44579,-11.04005 z" />
    </g>
  </symbol>
</svg>
