<?xml version="1.0" encoding="UTF-8" standalone="no"?>
<!-- Created with Inkscape (http://www.inkscape.org/) -->

<svg
   version="1.1"
   id="svg1"
   width="24"
   height="24.000015"
   viewBox="0 0 24 24.000015"
   xmlns="http://www.w3.org/2000/svg"
   xmlns:svg="http://www.w3.org/2000/svg">
  <defs
     id="defs1" />
  <g
     id="g1"
     transform="translate(-77.479515,-134.12738)">
    <path
       id="path17-23"
       style="display:inline;fill:none;stroke:#6874cc;stroke-width:1.14971;stroke-linecap:butt;stroke-linejoin:miter;stroke-dasharray:none;stroke-opacity:1"
       d="m 89.694799,146.18291 9.759021,5.53261 -19.90672,-11.28206 m 9.732457,5.94119 -9.670891,5.68527 19.723917,-11.5987 m -9.849796,5.69065 0.08814,11.21787 -0.182803,-22.88077 m -0.425645,11.63741 h 0.517043 0.517043 m -0.517043,-0.51704 v 0.51704 0.51705 m 11.425138,-0.51604 a 11.425146,11.425152 0 0 1 -11.425143,11.42515 11.425146,11.425152 0 0 1 -11.425146,-11.42515 11.425146,11.425152 0 0 1 11.425146,-11.42515 11.425146,11.425152 0 0 1 11.425143,11.42515 z" />
  </g>
</svg>
